<svg xmlns="http://www.w3.org/2000/svg" viewBox="0 0 202 29"><path fill-rule="evenodd" d="M9.35.953c2.901 0 4.775 2.47 4.775 6.29 0 1.97-.535 3.611-1.546 4.748-.857.963-2.034 1.516-3.229 1.516H5.938a.062.062 0 0 1-.062-.063v-2.069c0-.031.028-.06.062-.06h2.373c1.442 0 2.236-1.451 2.236-4.087 0-2.638-.794-4.088-2.234-4.088l-3.95.006c-.013 0-.024.017-.024.03L4.336 20.96c0 .031-.027.06-.059.06H.82c-.034 0-.063-.029-.063-.06V1.01c0-.034.03-.061.063-.061l8.53.004zM19.77.948a.06.06 0 0 1 .06.062v19.95a.063.063 0 0 1-.06.061h-3.456a.062.062 0 0 1-.06-.06V1.01c0-.035.027-.063.06-.063h3.456zm15.09 4.854v.095l.002 15.063a.064.064 0 0 1-.06.061h-3.456a.064.064 0 0 1-.063-.06l.004-13c0-.016-.01-.03-.023-.03H28.63c-.7 0-1.488.117-1.984 1.006-.453.806-.662 2.214-.66 4.427v3.325c0 1.895.742 2.131 1.3 2.142l2.4-.004c.035 0 .061.027.061.064v2.07a.062.062 0 0 1-.062.06h-3.357c-2.272 0-3.92-1.924-3.92-4.575v-3.08c0-3.56.705-7.624 6.222-7.624h6.17a.06.06 0 0 1 .061.06zm24.88 3.501c1.477.112 2.547.605 3.277 1.506.847 1.047 1.276 2.512 1.276 4.347 0 5.105-3.144 5.865-5.018 5.865h-6.077a.063.063 0 0 1-.06-.06v-2.07c0-.033.028-.064.06-.064h4.892c2.356 0 2.624-1.998 2.624-3.099v-.497c0-1.757-.798-2.909-2.087-3.007l-1.7-.128c-2.725-.206-4.557-2.349-4.557-5.33v-.158C52.37 2.84 54.666.95 57.88.95l5.1-.002h.103c.032 0 .058.028.058.062v2.075c0 .034-.026.062-.058.062H58.37c-1.458 0-2.562.66-2.562 3.11 0 2.097.952 2.804 2.228 2.916l1.703.13zm28.334-3.5V20.96a.064.064 0 0 1-.061.061h-3.457a.063.063 0 0 1-.06-.06l.004-13c0-.016-.012-.03-.024-.03H81.84c-.701 0-1.485.117-1.982 1.006-.454.806-.663 2.214-.661 4.427v3.325c0 1.895.738 2.131 1.299 2.142l2.399-.004c.036 0 .064.027.064.064v2.07a.064.064 0 0 1-.064.06h-3.358c-2.27 0-3.918-1.924-3.918-4.575l-.004-3.08c0-3.56.71-7.624 6.228-7.624h6.17a.06.06 0 0 1 .06.06zm-13.904-.06a.06.06 0 0 1 .061.06v2.06c0 .032-.028.063-.06.063 0 0-2.598.005-3.742 0-.01 0-.024.008-.024.02v8.905c0 1.95.911 1.97 1.3 1.977h1.522c.032 0 .063.03.063.064v2.069c0 .03-.03.06-.063.06H70.75c-2.27 0-3.922-1.922-3.922-4.572V3.207c0-.032.03-.06.063-.06h3.458c.032 0 .061.028.061.06l-.004 2.498.004.013c0 .011.01.024.021.024h3.74zm24.145 0a.06.06 0 0 1 .06.06v2.06c0 .032-.026.063-.06.063 0 0-2.6.005-3.744 0-.011 0-.021.008-.021.02v8.905c0 1.95.909 1.97 1.298 1.977h1.523c.035 0 .06.03.06.064v2.069a.06.06 0 0 1-.06.06h-2.48c-2.27 0-3.922-1.922-3.922-4.572V3.207c0-.032.03-.06.066-.06h3.457c.03 0 .058.028.058.06v2.511c0 .011.012.024.023.024h3.742zm5.718 0a.06.06 0 0 1 .059.06V20.96c0 .031-.027.06-.059.06h-3.458c-.032 0-.062-.029-.062-.06V5.803c0-.033.03-.06.062-.06h3.458zm0-4.795c.032 0 .059.028.059.062v2.893a.061.061 0 0 1-.059.062h-3.458a.064.064 0 0 1-.062-.062V1.01c0-.034.03-.062.062-.062h3.458zm23.904 4.794c5.515 0 6.223 4.064 6.223 7.624v7.595c0 .03-.027.06-.062.06h-3.453c-.036 0-.066-.03-.066-.06 0 0 .008-7.905.006-7.995 0-2.055-.213-3.357-.663-4.104-.498-.82-1.284-.931-1.986-.931H125.3c-.014 0-.027.011-.027.022l.008 13.008c0 .03-.028.06-.063.06h-3.454c-.033 0-.063-.03-.063-.06l.003-15.158a.06.06 0 0 1 .06-.06h6.172zm-12.838 12.086c.499-.807.73-2.22.73-4.443 0-2.644-.327-4.14-1.051-4.855-.431-.421-.991-.599-1.873-.599s-1.443.178-1.87.599c-.73.715-1.051 2.207-1.051 4.838v.017c0 2.223.23 3.634.726 4.443.552.893 1.42 1.015 2.195 1.015.777 0 1.65-.122 2.194-1.015zm-2.194-12.087c5.775 0 6.514 4.086 6.514 7.644 0 3.561-.739 7.647-6.515 7.647-5.772 0-6.514-4.086-6.514-7.647 0-3.558.742-7.644 6.515-7.644zm-76.097.002 3.627-.002c.036 0 .072.027.084.059l3.36 9.87c.014.033.03.034.044 0L47.74 5.8a.101.101 0 0 1 .088-.058h3.278c.037 0 .053.026.04.058l-9.01 22.585a.102.102 0 0 1-.085.058h-3.005c-.032 0-.052-.027-.038-.058l2.879-7.449a.191.191 0 0 0 .003-.116L36.767 5.8c-.01-.032.009-.058.041-.058zM153.81 3.498a11.97 11.97 0 0 0-4.416-.845c-1.911 0-4.05.731-4.05 3.067 0 1.8 1.069 2.784 4.19 3.994 3.797 1.463 5.767 2.981 5.767 6.102 0 3.966-3.431 5.542-6.751 5.542-1.772 0-4.05-.395-5.934-1.239l.619-2.108c1.829.9 3.796 1.293 5.37 1.293 2.42 0 4.249-1.069 4.249-3.318 0-2.053-1.773-3.094-4.81-4.332-3.431-1.377-5.147-3.094-5.147-5.765 0-3.713 3.487-5.288 6.526-5.288 1.772 0 3.544.281 4.977.843l-.59 2.054zm2.192 2.672h2.644V2.43h2.39v3.74h3.431v1.886h-3.43v8.886c0 2.025.196 2.39 1.883 2.39.648 0 1.068-.056 1.575-.111v1.8c-.535.084-1.463.197-2.25.197-3.094 0-3.599-1.492-3.599-4.135V8.057h-2.644V6.17zM172.2 7.718c-3.093 0-4.5 2.42-4.5 5.848 0 3.462 1.463 5.908 4.5 5.908 3.096 0 4.5-2.446 4.5-5.908 0-3.429-1.404-5.848-4.5-5.848zm0 13.641c-4.245 0-6.89-2.954-6.89-7.793 0-4.835 2.644-7.734 6.89-7.734 4.248 0 6.89 2.9 6.89 7.734 0 4.84-2.643 7.793-6.89 7.793zm16.003-13.557a7.817 7.817 0 0 0-1.237-.084c-1.97 0-3.545 1.154-3.545 4.613v8.69h-2.389V6.171h2.303v1.997h.03c.732-1.575 1.968-2.336 3.88-2.336.254 0 .647 0 1.07.058l-.112 1.912zm2.305 4.557h8.38v-.113c0-2.84-1.6-4.528-3.965-4.528-2.671 0-4.163 1.913-4.415 4.64zm0 1.885c.168 3.177 2.109 5.23 5.259 5.23 1.38 0 2.84-.252 3.995-.73l.393 1.828c-1.238.534-2.897.787-4.443.787-4.923 0-7.511-3.32-7.511-7.734 0-4.5 2.559-7.792 6.694-7.792 4.162 0 6.158 2.868 6.158 7.257v1.154h-10.545zm-53.957 4.392h-.887v-.305h2.118v.305h-.88v2.388h-.35v-2.388zm2.664 2.387-.738-2.188v2.188h-.352V18.33h.49l.776 2.294.779-2.294h.487v2.693h-.351v-2.188l-.737 2.188h-.354z"/></svg>